<svg width="32" height="32" viewBox="0 0 32 32" fill="none" xmlns="http://www.w3.org/2000/svg">
  <path d="M16 4C15.4477 4 15 4.44772 15 5V10C15 10.5523 15.4477 11 16 11C16.5523 11 17 10.5523 17 10V5C17 4.44772 16.5523 4 16 4Z" fill="#FF6B35"/>
  <path d="M16 21C15.4477 21 15 21.4477 15 22V27C15 27.5523 15.4477 28 16 28C16.5523 28 17 27.5523 17 27V22C17 21.4477 16.5523 21 16 21Z" fill="#FF6B35"/>
  <path d="M10 16H5C4.44772 16 4 15.5523 4 15C4 14.4477 4.44772 14 5 14H10C10.5523 14 11 14.4477 11 15C11 15.5523 10.5523 16 10 16Z" fill="#FF6B35"/>
  <path d="M27 16H22C21.4477 16 21 15.5523 21 15C21 14.4477 21.4477 14 22 14H27C27.5523 14 28 14.4477 28 15C28 15.5523 27.5523 16 27 16Z" fill="#FF6B35"/>
  <path d="M10.7574 7.75736C10.3668 7.36683 9.73369 7.36683 9.34316 7.75736C8.95264 8.14788 8.95264 8.78105 9.34316 9.17157L12.8787 12.7071C13.2692 13.0976 13.9024 13.0976 14.2929 12.7071C14.6834 12.3166 14.6834 11.6834 14.2929 11.2929L10.7574 7.75736Z" fill="#FF6B35"/>
  <path d="M22.6569 22.8284C23.0474 22.4379 23.0474 21.8047 22.6569 21.4142C22.2663 21.0237 21.6332 21.0237 21.2426 21.4142L17.7071 24.9497C17.3166 25.3403 17.3166 25.9734 17.7071 26.364C18.0976 26.7545 18.7308 26.7545 19.1213 26.364L22.6569 22.8284Z" fill="#FF6B35"/>
  <path d="M9.34316 22.6569C8.95264 23.0474 8.95264 23.6805 9.34316 24.0711C9.73369 24.4616 10.3668 24.4616 10.7574 24.0711L14.2929 20.5355C14.6834 20.145 14.6834 19.5118 14.2929 19.1213C13.9024 18.7308 13.2692 18.7308 12.8787 19.1213L9.34316 22.6569Z" fill="#FF6B35"/>
  <path d="M22.6569 9.17157C23.0474 8.78105 23.0474 8.14788 22.6569 7.75736C22.2663 7.36683 21.6332 7.36683 21.2426 7.75736L17.7071 11.2929C17.3166 11.6834 17.3166 12.3166 17.7071 12.7071C18.0976 13.0976 18.7308 13.0976 19.1213 12.7071L22.6569 9.17157Z" fill="#FF6B35"/>
  <circle cx="16" cy="16" r="3" fill="#FF6B35"/>
</svg>
